{"title":"Saving Mr. Banks 2014 1080p BluRay x264 SPARKS DUAL BRENYS","uid":10233926,"size":8748204016,"categoryP":"video","categoryS":"hd___movies","magnet":"?xt=urn:btih:cafe9884a51f54eeaeea48be26c76eb67f6959d4&amp;dn=Saving+Mr.+Banks+2014+1080p+BluRay+x264+SPARKS+DUAL+BRENYS&amp;tr=udp%3A%2F%2Ftracker.openbittorrent.com%3A80&amp;tr=udp%3A%2F%2Fopen.demonii.com%3A1337&amp;tr=udp%3A%2F%2Ftracker.coppersurfer.tk%3A6969&amp;tr=udp%3A%2F%2Fexodus.desync.com%3A6969","seeders":0,"leechers":0,"uploader":"Alemao99","files":5,"time":1401158300,"description":"Walt Backstage Mary Poppins (Saving Mr. Banks) is a film based on real events, which shows how was the production of the classic Mary Poppins (1964). The plot follows how the battle between Walt Disney (Tom Hanks) and the Australian author Pamela Lyndon Travers (Emma Thompson), which lasted 14 years where Walt tried in every way to persuade the famous writer to sell the rights of adaptation to theaters Mary Poppins. \n\nOriginal title: Walt Backstage Mary Poppins \nTranslated Title: Saving Mr. Banks \nGenre: Drama | Comedy \nYear: 2014 \nDirector: John Lee Hancock \nOrigin: United States \nDuration: 125min \nIMDB: http://www.imdb.com/title/tt2140373/ \n\nSize: 8.15 GB \nResolution: 1920 x 800 \nQuality: Blu-Ray \nVideo Codec: H.264 / AVC \nAudio Codec: AC3 \nExtent File:. MKV \nLanguage: Portuguese / English \nCaption: Portuguese\n\nFormat                                   : Matroska\nFormat version                           : Version 4 / Version 2\nFile size                                : 8.15 GiB\nDuration                                 : 2h 5mn\nOverall bit rate                         : 9 281 Kbps\nMovie name                               : Walt.nos.Bastidores.de.Mary.Poppins.2014.1080p.BluRay.x264.SPARKS.DUAL-BRENYS\nEncoded date                             : UTC 2014-05-03 19:10:23\nWriting application                      : mkvmerge v6.3.0 ('You can't stop me!') built on Jun 27 2013 22:06:07\nWriting library                          : libebml v1.3.0 + libmatroska v1.4.0\n\nVideo\nID                                       : 1\nFormat                                   : AVC\nFormat/Info                              : Advanced Video Codec\nFormat profile                           : &lt;a class=&quot;__cf_email__&quot; href=&quot;/cdn-cgi/l/email-protection&quot; data-cfemail=&quot;4b03222c230b077f657a&quot;&gt;[email&amp;#160;protected]&lt;/a&gt;&lt;script data-cfhash='f9e31' type=&quot;text/javascript&quot;&gt;\n/* &lt;![CDATA[ */!function(){try{var t=&quot;currentScript&quot;in document?document.currentScript:function(){for(var t=document.getElementsByTagName(&quot;script&quot;),e=t.length;e--;)if(t[e].getAttribute(&quot;data-cfhash&quot;))return t[e]}();if(t&amp;&amp;t.previousSibling){var e,r,n,i,c=t.previousSibling,a=c.getAttribute(&quot;data-cfemail&quot;);if(a){for(e=&quot;&quot;,r=parseInt(a.substr(0,2),16),n=2;a.length-n;n+=2)i=parseInt(a.substr(n,2),16)^r,e+=String.fromCharCode(i);e=document.createTextNode(e),c.parentNode.replaceChild(e,c)}t.parentNode.removeChild(t);}}catch(u){}}()/* ]]&gt; */&lt;/script&gt;\nFormat settings, CABAC                   : Yes\nFormat settings, ReFrames                : 5 frames\nCodec ID                                 : V_MPEG4/ISO/AVC\nDuration                                 : 2h 5mn\nBit rate                                 : 8 449 Kbps\nWidth                                    : 1 920 pixels\nHeight                                   : 800 pixels\nDisplay aspect ratio                     : 2.40:1\nFrame rate                               : 23.976 fps\nColor space                              : YUV\nChroma subsampling                       : 4:2:0\nBit depth                                : 8 bits\nScan type                                : Progressive\nBits/(Pixel*Frame)                       : 0.229\nStream size                              : 7.25 GiB (89%)\nWriting library                          : x264 core 140 r2377 1ca7bb9\nEncoding settings                        : cabac=1 / ref=5 / deblock=1:0:0 / analyse=0x3:0x133 / me=umh / subme=7 / psy=1 / psy_rd=1.00:0.00 / mixed_ref=1 / me_range=16 / chroma_me=1 / trellis=1 / 8x8dct=1 / cqm=0 / deadzone=21,11 / fast_pskip=0 / chroma_qp_offset=-2 / threads=18 / lookahead_threads=3 / sliced_threads=0 / nr=0 / decimate=1 / interlaced=0 / bluray_compat=0 / constrained_intra=0 / bframes=3 / b_pyramid=2 / b_adapt=1 / b_bias=0 / direct=1 / weightb=1 / open_gop=0 / weightp=2 / keyint=250 / keyint_min=23 / scenecut=40 / intra_refresh=0 / rc_lookahead=40 / rc=2pass / mbtree=1 / bitrate=8449 / ratetol=1.0 / qcomp=0.60 / qpmin=0 / qpmax=69 / qpstep=4 / cplxblur=20.0 / qblur=0.5 / ip_ratio=1.40 / aq=1:1.00\nDefault                                  : Yes\nForced                                   : No\n\nAudio #1\nID                                       : 2\nFormat                                   : AC-3\nFormat/Info                              : Audio Coding 3\nMode extension                           : CM (complete main)\nFormat settings, Endianness              : Big\nCodec ID                                 : A_AC3\nDuration                                 : 2h 5mn\nBit rate mode                            : Constant\nBit rate                                 : 448 Kbps\nChannel(s)                               : 6 channels\nChannel positions                        : Front: L C R, Side: L R, LFE\nSampling rate                            : 48.0 KHz\nBit depth                                : 16 bits\nCompression mode                         : Lossy\nStream size                              : 403 MiB (5%)\nTitle                                    : Portugues AC3 5.1- BRENYS\nLanguage                                 : Portuguese\nDefault                                  : Yes\nForced                                   : No\n\nAudio #2\nID                                       : 3\nFormat                                   : AC-3\nFormat/Info                              : Audio Coding 3\nMode extension                           : CM (complete main)\nFormat settings, Endianness              : Big\nCodec ID                                 : A_AC3\nDuration                                 : 2h 5mn\nBit rate mode                            : Constant\nBit rate                                 : 384 Kbps\nChannel(s)                               : 6 channels\nChannel positions                        : Front: L C R, Side: L R, LFE\nSampling rate                            : 48.0 KHz\nBit depth                                : 16 bits\nCompression mode                         : Lossy\nStream size                              : 345 MiB (4%)\nLanguage                                 : English\nDefault                                  : No\nForced                                   : No\n\n\nSEED PLEASE\n\nENJOY...","torrent":{"xt":"urn:btih:cafe9884a51f54eeaeea48be26c76eb67f6959d4","amp;dn":"Saving+Mr.+Banks+2014+1080p+BluRay+x264+SPARKS+DUAL+BRENYS","amp;tr":["udp%3A%2F%2Ftracker.openbittorrent.com%3A80","udp%3A%2F%2Fopen.demonii.com%3A1337","udp%3A%2F%2Ftracker.coppersurfer.tk%3A6969","udp%3A%2F%2Fexodus.desync.com%3A6969"],"infoHash":"cafe9884a51f54eeaeea48be26c76eb67f6959d4","infoHashBuffer":{"type":"Buffer","data":[202,254,152,132,165,31,84,238,174,234,72,190,38,199,110,182,127,105,89,212]},"announce":[],"urlList":[]}}